# File created by Blade
# Date/Time:  Tue Sep 30 19:36:36 2014
#---------------------------------------------------------
:version 1.10
:name HOM
:units
  mass 1.0
  length 1.000000
  angle deg
:documentation
     Acclaim Skeleton File
:root
   axis xyz
   order TX TY TZ RX RY RZ
   position 0.000000 0.000000 0.000000
   orientation 0 0 0
:bonedata
   begin
      id 1
      name Spine_dum
      direction 0.000000 1.000000 0.000000
      length 3.241213
      axis 0.0 0.0 0.0 xyz
   end
   begin
      id 2
      name LeftUpLeg_dum
      direction 1.000000 0.000000 0.000000
      length 3.434019
      axis 0.0 0.0 0.0 xyz
   end
   begin
      id 3
      name RightUpLeg_dum
      direction -1.000000 0.000000 0.000000
      length 3.434019
      axis 0.0 0.0 0.0 xyz
   end
   begin
      id 4
      name Spine
      direction 0.000000 1.000000 0.000000
      length 0.000000
      axis 0.0 0.0 0.0 xyz
      dof rx ry rz
   end
   begin
      id 5
      name Spine_dum1
      direction 0.000000 1.000000 0.000000
      length 18.382958
      axis 0.0 0.0 0.0 xyz
   end
   begin
      id 6
      name Spine_dum2
      direction 0.000000 1.000000 0.000000
      length 12.828261
      axis 0.0 0.0 0.0 xyz
   end
   begin
      id 7
      name Spine_dum3
      direction 0.000000 1.000000 0.000000
      length 12.828261
      axis 0.0 0.0 0.0 xyz
   end
   begin
      id 8
      name Head
      direction 0.000000 1.000000 0.000000
      length 4.527550
      axis 0.0 0.0 0.0 xyz
      dof rx ry rz
   end
   begin
      id 9
      name LeftShoulder
      direction 1.000000 0.000000 0.000000
      length 7.748055
      axis 0.0 0.0 -90.0 xyz
      dof rx ry rz
   end
   begin
      id 10
      name LeftArm
      direction 1.000000 0.000000 0.000000
      length 10.635614
      axis 0.0 0.0 -90.0 xyz
      dof rx ry rz
   end
   begin
      id 11
      name LeftForeArm
      direction 1.000000 0.000000 0.000000
      length 8.346755
      axis 0.0 0.0 -90.0 xyz
      dof ry rz rx
   end
   begin
      id 12
      name LeftHand
      direction 0.000000 0.000000 0.000000
      length 0.000000
      axis 0.0 0.0 -90.0 xyz
      dof rx ry rz
   end
   begin
      id 13
      name LeftHand_dum1
      direction 0.000000 0.000000 0.000000
      length 0.000000
      axis 0.0 0.0 -90.0 xyz
   end
   begin
      id 14
      name LeftHand_dum2
      direction 1.000000 0.000000 0.000000
      length 3.937000
      axis 0.0 0.0 -90.0 xyz
   end
   begin
      id 15
      name LeftHandThumb1
      direction 0.000000 0.000000 1.000000
      length 3.937000
      axis 0.0 0.0 -90.0 xyz
      dof rx rz ry
   end
   begin
      id 16
      name RightShoulder
      direction -1.000000 0.000000 0.000000
      length 7.748055
      axis 0.0 0.0 90.0 xyz
      dof rx ry rz
   end
   begin
      id 17
      name RightArm
      direction -1.000000 0.000000 0.000000
      length 10.635614
      axis 0.0 0.0 90.0 xyz
      dof rx ry rz
   end
   begin
      id 18
      name RightForeArm
      direction -1.000000 0.000000 0.000000
      length 8.346755
      axis 0.0 0.0 90.0 xyz
      dof ry rz rx
   end
   begin
      id 19
      name RightHand
      direction 0.000000 0.000000 0.000000
      length 0.000000
      axis 0.0 0.0 90.0 xyz
      dof rx ry rz
   end
   begin
      id 20
      name RightHand_dum1
      direction 0.000000 0.000000 0.000000
      length 0.000000
      axis 0.0 0.0 90.0 xyz
   end
   begin
      id 21
      name RightHand_dum2
      direction -1.000000 0.000000 0.000000
      length 3.937000
      axis 0.0 0.0 90.0 xyz
   end
   begin
      id 22
      name RightHandThumb1
      direction 0.000000 0.000000 1.000000
      length 3.937000
      axis 0.0 0.0 90.0 xyz
      dof rx rz ry
   end
   begin
      id 23
      name LeftUpLeg
      direction 0.000000 -1.000000 0.000000
      length 15.713025
      axis 0.0 0.0 0.0 xyz
      dof rx ry rz
   end
   begin
      id 24
      name LeftLeg
      direction 0.000000 -1.000000 0.000000
      length 14.435119
      axis 0.0 0.0 0.0 xyz
      dof rx ry rz
   end
   begin
      id 25
      name LeftFoot
      direction 0.000000 -0.258819 0.965926
      length 4.938895
      axis 15.0 0.0 0.0 xyz
      dof rx ry rz
   end
   begin
      id 26
      name LeftToeBase
      direction 0.000000 0.000000 1.000000
      length 2.952750
      axis 0.0 0.0 0.0 xyz
      dof rx ry rz
   end
   begin
      id 27
      name RightUpLeg
      direction 0.000000 -1.000000 0.000000
      length 15.713025
      axis 0.0 0.0 0.0 xyz
      dof rx ry rz
   end
   begin
      id 28
      name RightLeg
      direction 0.000000 -1.000000 0.000000
      length 14.435119
      axis 0.0 0.0 0.0 xyz
      dof rx ry rz
   end
   begin
      id 29
      name RightFoot
      direction 0.000000 -0.258819 0.965926
      length 4.938895
      axis 15.0 0.0 0.0 xyz
      dof rx ry rz
   end
   begin
      id 30
      name RightToeBase
      direction 0.000000 0.000000 1.000000
      length 2.952750
      axis 0.0 0.0 0.0 xyz
      dof rx ry rz
   end
:hierarchy
   begin
      root Spine_dum LeftUpLeg_dum RightUpLeg_dum
      Spine_dum Spine
      LeftUpLeg_dum LeftUpLeg
      RightUpLeg_dum RightUpLeg
      Spine Spine_dum1 Spine_dum2 Spine_dum3
      Spine_dum1 Head
      Spine_dum2 LeftShoulder
      Spine_dum3 RightShoulder
      LeftShoulder LeftArm
      LeftArm LeftForeArm
      LeftForeArm LeftHand
      LeftHand LeftHand_dum1 LeftHand_dum2
      LeftHand_dum1 LeftHandThumb1
      RightShoulder RightArm
      RightArm RightForeArm
      RightForeArm RightHand
      RightHand RightHand_dum1 RightHand_dum2
      RightHand_dum1 RightHandThumb1
      LeftUpLeg LeftLeg
      LeftLeg LeftFoot
      LeftFoot LeftToeBase
      RightUpLeg RightLeg
      RightLeg RightFoot
      RightFoot RightToeBase
   end

# File created by Blade
# Date/Time:  Tue Sep 23 19:22:32 2014
# Frame Rate: 120.000 fps
#------------------------------------------------------
:FULLY-SPECIFIED
:DEGREES
555
root 1.437058 34.286738 -0.528564 120.298306 4.387098 -33.341886
Spine -72.321306 -13.139017 38.797492
Head -21.214524 31.488657 39.230874
LeftShoulder -19.037757 34.555629 40.896170
LeftArm 125.905914 -75.244279 -142.049939
LeftForeArm 3.849293 -0.000000 107.329543
LeftHand 37.695163 -0.000000 6.513438
LeftHandThumb1 -26.253704 0.000000 33.147579
RightShoulder -54.891230 -53.654557 15.250063
RightArm 26.282767 8.077133 51.234295
RightForeArm 0.155645 -0.000000 116.178277
RightHand 15.127806 -0.000000 10.557549
RightHandThumb1 -24.326973 -0.000000 -32.862282
LeftUpLeg -117.789856 32.748068 -5.902823
LeftLeg -7.367074 -0.000000 0.000000
LeftFoot 3.980666 1.442209 7.315885
LeftToeBase -1.059604 -0.000000 0.000000
RightUpLeg -2.312816 25.904490 -33.604795
RightLeg 138.960313 -0.000000 -0.000000
RightFoot 54.357000 14.575803 1.572073
RightToeBase 41.899964 -0.000000 -0.000000
556
root 1.449607 34.288777 -0.537035 120.320351 4.288812 -33.364907
Spine -72.203657 -13.106409 38.652186
Head -21.445068 31.486910 39.150172
LeftShoulder -18.996731 34.587099 40.898118
LeftArm 126.341657 -75.196073 -142.597810
LeftForeArm 3.823572 -0.000000 107.344143
LeftHand 37.696214 -0.000000 6.563013
LeftHandThumb1 -26.253704 0.000000 33.147579
RightShoulder -54.607262 -53.480789 14.891987
RightArm 26.292433 7.876660 50.907982
RightForeArm -0.633803 -0.000000 116.454872
RightHand 14.996166 0.000000 10.851142
RightHandThumb1 -24.326973 -0.000000 -32.862282
LeftUpLeg -117.833336 32.740909 -5.999781
LeftLeg -7.365740 -0.000000 0.000000
LeftFoot 4.034876 1.459981 7.095437
LeftToeBase -1.217132 -0.000000 0.000000
RightUpLeg -2.250390 26.104376 -33.561269
RightLeg 139.150019 -0.000000 -0.000000
RightFoot 54.496778 14.344905 1.638735
RightToeBase 41.837065 -0.000000 -0.000000
557
root 1.461513 34.291805 -0.543723 120.382364 4.181882 -33.385008
Spine -72.142813 -13.073074 38.519419
Head -21.608995 31.413149 39.088738
LeftShoulder -18.874112 34.582140 41.001508
LeftArm 126.670908 -75.318314 -143.122650
LeftForeArm 4.090784 -0.000000 107.394273
LeftHand 37.509405 -0.000000 6.890648
LeftHandThumb1 -26.253704 0.000000 33.147579
RightShoulder -54.223740 -53.300371 14.441982
RightArm 26.223269 7.598768 50.509033
RightForeArm -1.424247 -0.000000 116.680982
RightHand 15.108310 -0.000000 11.042533
RightHandThumb1 -24.326973 -0.000000 -32.862282
LeftUpLeg -117.884769 32.743043 -6.026318
LeftLeg -7.291428 -0.000000 0.000000
LeftFoot 4.027805 1.547882 6.994698
LeftToeBase -1.235630 -0.000000 0.000000
RightUpLeg -2.218747 26.276730 -33.529328
RightLeg 139.368344 -0.000000 -0.000000
RightFoot 54.555384 14.244478 1.640447
RightToeBase 41.729990 -0.000000 -0.000000
558
root 1.471051 34.295046 -0.551798 120.408288 4.117198 -33.416869
Spine -72.042839 -13.049082 38.447278
Head -21.758945 31.375378 39.020874
LeftShoulder -18.876436 34.602120 41.007094
LeftArm 127.073802 -75.204102 -143.626514
LeftForeArm 4.116627 -0.000000 107.358344
LeftHand 37.698873 -0.000000 6.532669
LeftHandThumb1 -26.253704 0.000000 33.147579
RightShoulder -53.736795 -53.177559 13.914308
RightArm 26.149234 7.268008 50.108941
RightForeArm -2.144583 0.000000 116.902007
RightHand 15.086593 0.000000 11.178777
RightHandThumb1 -24.326973 -0.000000 -32.862282
LeftUpLeg -117.943558 32.766037 -6.012378
LeftLeg -7.154136 -0.000000 0.000000
LeftFoot 3.991733 1.643324 7.031956
LeftToeBase -1.234120 -0.000000 0.000000
RightUpLeg -2.184029 26.449891 -33.457532
RightLeg 139.577965 -0.000000 -0.000000
RightFoot 54.714217 14.121614 1.663123
RightToeBase 41.701530 -0.000000 -0.000000
